<svg width="30" height="16" viewBox="0 0 30 16" fill="none" xmlns="http://www.w3.org/2000/svg">
<path d="M22.8602 1H2.74264H2.14282C1.59054 1 1.14282 1.44771 1.14282 2V12.3323C1.14282 12.8846 1.59054 13.3323 2.14282 13.3323H22.8602C23.4125 13.3323 23.8602 12.8846 23.8602 12.3323V2C23.8602 1.44772 23.4125 1 22.8602 1Z" fill="#5DC065" stroke="#5DC065"/>
<path d="M23.8605 2.94727H26.4923C26.9297 2.94727 27.3164 3.23152 27.4468 3.64899L29.0075 8.64322C29.0377 8.73977 29.053 8.84034 29.053 8.94149V12.3324C29.053 12.8846 28.6053 13.3324 28.053 13.3324H23.2114" stroke="#5DC065"/>
<path d="M29.0527 8.78882H23.8601" stroke="#5DC065"/>
<circle cx="5.68636" cy="13.3324" r="2.49627" fill="#5DC065" stroke="white" stroke-width="0.2"/>
<circle cx="23.2113" cy="13.3324" r="2.49627" fill="#5DC065" stroke="white" stroke-width="0.2"/>
<path d="M6.90529 8.35718V3.99354H9.52177V4.46229H7.4337V5.93672H9.32575V6.40547H7.4337V8.35718H6.90529ZM10.3234 8.35718V5.08445H10.8092V5.57877H10.8433C10.903 5.41684 11.0109 5.28544 11.1672 5.18459C11.3234 5.08374 11.4996 5.03331 11.6956 5.03331C11.7325 5.03331 11.7787 5.03402 11.8341 5.03544C11.8895 5.03687 11.9314 5.039 11.9598 5.04184V5.5532C11.9428 5.54894 11.9037 5.54255 11.8426 5.53402C11.783 5.52408 11.7197 5.51911 11.653 5.51911C11.4939 5.51911 11.3518 5.55249 11.2268 5.61925C11.1033 5.68459 11.0053 5.7755 10.9328 5.89198C10.8618 6.00704 10.8263 6.13843 10.8263 6.28615V8.35718H10.3234ZM13.8284 8.42536C13.5131 8.42536 13.2411 8.35576 13.0124 8.21655C12.7851 8.07593 12.6097 7.87991 12.4861 7.62848C12.3639 7.37564 12.3028 7.08161 12.3028 6.74638C12.3028 6.41115 12.3639 6.1157 12.4861 5.86002C12.6097 5.60292 12.7815 5.40263 13.0017 5.25917C13.2233 5.11428 13.4818 5.04184 13.7773 5.04184C13.9477 5.04184 14.1161 5.07025 14.2822 5.12706C14.4484 5.18388 14.5997 5.27621 14.7361 5.40405C14.8724 5.53047 14.9811 5.69809 15.0621 5.90689C15.143 6.1157 15.1835 6.3728 15.1835 6.6782V6.89127H12.6608V6.45661H14.6722C14.6722 6.27195 14.6352 6.10718 14.5614 5.96229C14.4889 5.8174 14.3852 5.70306 14.2503 5.61925C14.1168 5.53544 13.9591 5.49354 13.7773 5.49354C13.577 5.49354 13.4037 5.54326 13.2574 5.64269C13.1125 5.7407 13.001 5.86854 12.9229 6.02621C12.8447 6.18388 12.8057 6.35292 12.8057 6.53331V6.82309C12.8057 7.07025 12.8483 7.27976 12.9335 7.45164C13.0202 7.62209 13.1402 7.75206 13.2936 7.84155C13.447 7.92962 13.6253 7.97366 13.8284 7.97366C13.9605 7.97366 14.0798 7.95519 14.1864 7.91826C14.2943 7.87991 14.3874 7.82309 14.4655 7.7478C14.5436 7.6711 14.604 7.57593 14.6466 7.46229L15.1324 7.59866C15.0813 7.76343 14.9953 7.90831 14.8746 8.03331C14.7538 8.15689 14.6047 8.25348 14.4271 8.32309C14.2496 8.39127 14.05 8.42536 13.8284 8.42536ZM17.3206 8.42536C17.0053 8.42536 16.7332 8.35576 16.5045 8.21655C16.2773 8.07593 16.1018 7.87991 15.9783 7.62848C15.8561 7.37564 15.795 7.08161 15.795 6.74638C15.795 6.41115 15.8561 6.1157 15.9783 5.86002C16.1018 5.60292 16.2737 5.40263 16.4939 5.25917C16.7155 5.11428 16.974 5.04184 17.2695 5.04184C17.4399 5.04184 17.6082 5.07025 17.7744 5.12706C17.9406 5.18388 18.0919 5.27621 18.2283 5.40405C18.3646 5.53047 18.4733 5.69809 18.5543 5.90689C18.6352 6.1157 18.6757 6.3728 18.6757 6.6782V6.89127H16.153V6.45661H18.1643C18.1643 6.27195 18.1274 6.10718 18.0536 5.96229C17.9811 5.8174 17.8774 5.70306 17.7425 5.61925C17.609 5.53544 17.4513 5.49354 17.2695 5.49354C17.0692 5.49354 16.8959 5.54326 16.7496 5.64269C16.6047 5.7407 16.4932 5.86854 16.4151 6.02621C16.3369 6.18388 16.2979 6.35292 16.2979 6.53331V6.82309C16.2979 7.07025 16.3405 7.27976 16.4257 7.45164C16.5124 7.62209 16.6324 7.75206 16.7858 7.84155C16.9392 7.92962 17.1175 7.97366 17.3206 7.97366C17.4527 7.97366 17.572 7.95519 17.6786 7.91826C17.7865 7.87991 17.8795 7.82309 17.9577 7.7478C18.0358 7.6711 18.0962 7.57593 18.1388 7.46229L18.6246 7.59866C18.5734 7.76343 18.4875 7.90831 18.3668 8.03331C18.246 8.15689 18.0969 8.25348 17.9193 8.32309C17.7418 8.39127 17.5422 8.42536 17.3206 8.42536Z" fill="white"/>
</svg>
